<svg xmlns="http://www.w3.org/2000/svg" xmlns:xlink="http://www.w3.org/1999/xlink" width="1920" height="104" viewBox="0 0 1920 104"><defs><style>.a{fill:none;}.b,.d{fill:#fff;}.c{fill:#f60;}.d{font-size:36px;font-family:Helvetica;}.e{font-size:16px;font-family:FuturaPT-Bold, Futura PT;font-weight:700;}.f{filter:url(#c);}.g{filter:url(#a);}</style><filter id="a" x="1390.527" y="21.741" width="194" height="62.518" filterUnits="userSpaceOnUse"><feOffset dy="3" input="SourceAlpha"/><feGaussianBlur stdDeviation="3" result="b"/><feFlood flood-opacity="0.161"/><feComposite operator="in" in2="b"/><feComposite in="SourceGraphic"/></filter><filter id="c" x="1399.527" y="25.741" width="176" height="51" filterUnits="userSpaceOnUse"><feOffset dy="1" input="SourceAlpha"/><feGaussianBlur stdDeviation="5" result="d"/><feFlood flood-opacity="0.302"/><feComposite operator="in" in2="d"/><feComposite in="SourceGraphic"/></filter></defs><rect class="a" width="1920" height="100"/><path class="a" d="M0,0H1690V104H0Z" transform="translate(230)"/><path class="b" d="M32,96v8.141H88.99V96Zm0,16.283v8.141H88.99v-8.141Zm0,16.283v8.141H88.99v-8.141Z" transform="translate(1691.01 -67.354)"/><g transform="translate(1627.01 28.646)"><path class="b" d="M22.259,44.518A22.259,22.259,0,1,0,0,22.259,22.259,22.259,0,0,0,22.259,44.518Zm0-41.735A19.476,19.476,0,1,1,2.782,22.259,19.5,19.5,0,0,1,22.259,2.782Z"/><ellipse class="b" cx="5.484" cy="5.375" rx="5.484" ry="5.375" transform="translate(16.775 10.26)"/><path class="b" d="M150.229,244.28a9.378,9.378,0,0,0-9.471,9.282H159.7A9.378,9.378,0,0,0,150.229,244.28Z" transform="translate(-127.97 -222.087)"/></g><g transform="translate(162)"><rect class="c" width="192" height="86" transform="translate(0 9)"/><text class="d" transform="translate(96 62)"><tspan x="-50.01" y="0">RSVR</tspan></text></g><g class="g" transform="matrix(1, 0, 0, 1, 0, 0)"><rect class="b" width="176" height="44.518" transform="translate(1399.53 27.74)"/></g><g class="f" transform="matrix(1, 0, 0, 1, 0, 0)"><text class="e" transform="translate(1487.53 55.74)"><tspan x="-72.968" y="0">BECOME A TRAINER</tspan></text></g></svg>