<?xml version="1.0" encoding="UTF-8" standalone="no"?>
<svg
   xmlns:dc="http://purl.org/dc/elements/1.1/"
   xmlns:cc="http://creativecommons.org/ns#"
   xmlns:rdf="http://www.w3.org/1999/02/22-rdf-syntax-ns#"
   xmlns:svg="http://www.w3.org/2000/svg"
   xmlns="http://www.w3.org/2000/svg"
   xmlns:sodipodi="http://sodipodi.sourceforge.net/DTD/sodipodi-0.dtd"
   xmlns:inkscape="http://www.inkscape.org/namespaces/inkscape"
   width="113.591"
   height="104.594"
   viewBox="0 0 113.591 104.594"
   version="1.1"
   id="svg24"
   sodipodi:docname="video-svgrepo-com.svg"
   inkscape:version="1.0 (4035a4fb49, 2020-05-01)">
  <metadata
     id="metadata28">
    <rdf:RDF>
      <cc:Work
         rdf:about="">
        <dc:format>image/svg+xml</dc:format>
        <dc:type
           rdf:resource="http://purl.org/dc/dcmitype/StillImage" />
      </cc:Work>
    </rdf:RDF>
  </metadata>
  <sodipodi:namedview
     inkscape:document-rotation="0"
     pagecolor="#ffffff"
     bordercolor="#666666"
     borderopacity="1"
     objecttolerance="10"
     gridtolerance="10"
     guidetolerance="10"
     inkscape:pageopacity="0"
     inkscape:pageshadow="2"
     inkscape:window-width="1366"
     inkscape:window-height="746"
     id="namedview26"
     showgrid="false"
     inkscape:zoom="2.3615121"
     inkscape:cx="56.795502"
     inkscape:cy="52.297001"
     inkscape:window-x="-8"
     inkscape:window-y="-8"
     inkscape:window-maximized="1"
     inkscape:current-layer="svg24" />
  <defs
     id="defs4">
    <style
       id="style2">.a{fill:#fff;}</style>
  </defs>
  <g
     transform="translate(0 -20.278)"
     id="g22"
     style="fill:#ffffff;stroke:none">
    <path
       class="a"
       d="M151.131,229.5a29.9,29.9,0,1,1,0-59.8,3.341,3.341,0,1,1,0,6.681A23.218,23.218,0,1,0,174.349,199.6a3.341,3.341,0,1,1,6.682,0A29.934,29.934,0,0,1,151.131,229.5Z"
       transform="translate(-94.335 -116.268)"
       id="path6"
       style="fill:#ffffff;stroke:none" />
    <path
       class="a"
       d="M213.449,239.673l24.9,14.375-24.9,14.374Z"
       transform="translate(-166.093 -170.72)"
       id="path8"
       style="fill:#ffffff;stroke:none" />
    <path
       class="a"
       d="M201.732,260.047a3.341,3.341,0,0,1-3.341-3.341V227.957a3.341,3.341,0,0,1,5.011-2.893l24.9,14.374a3.341,3.341,0,0,1,0,5.786L203.4,259.6A3.335,3.335,0,0,1,201.732,260.047Zm3.341-26.3v17.176l14.875-8.588Z"
       transform="translate(-154.376 -159.004)"
       id="path10"
       style="fill:#ffffff;stroke:none" />
    <g
       transform="translate(3.341 23.619)"
       id="g18"
       style="fill:#ffffff;stroke:none">
      <path
         class="a"
         d="M49.254,35.336l-21.5,21.5H15.058V52.524L32.246,35.336Z"
         transform="translate(-15.058 -35.336)"
         id="path12"
         style="fill:#ffffff;stroke:none" />
      <path
         class="a"
         d="M206.017,35.336l-21.5,21.5H167.505l21.508-21.5Z"
         transform="translate(-133.683 -35.336)"
         id="path14"
         style="fill:#ffffff;stroke:none" />
      <path
         class="a"
         d="M374.368,35.336V38.9L356.425,56.84h-17l21.5-21.5Z"
         transform="translate(-267.458 -35.336)"
         id="path16"
         style="fill:#ffffff;stroke:none" />
    </g>
    <path
       class="a"
       d="M110.251,20.278H3.341A3.341,3.341,0,0,0,0,23.619v21.5c0,.008,0,.015,0,.023v76.385a3.341,3.341,0,0,0,3.341,3.341H110.249a3.341,3.341,0,0,0,3.341-3.341V63.277a3.341,3.341,0,0,0-6.682,0V118.19H6.682V48.464h9.349a3.341,3.341,0,0,0,2.362-.978L38.92,26.96H50.6l-15.8,15.8a3.341,3.341,0,0,0,2.362,5.7H110.25a3.341,3.341,0,0,0,3.341-3.341v-21.5A3.34,3.34,0,0,0,110.251,20.278Zm-48.016,21.5L77.058,26.959H88.742L73.92,41.782ZM12.463,26.959,6.681,32.742V26.959Zm2.185,14.823H7.09L21.913,26.959h7.559Zm30.58,0L60.054,26.959h7.555L52.786,41.782Zm38.14,0L98.192,26.959h7.558L90.924,41.782Zm17.005,0,6.536-6.535v6.535Z"
       id="path20"
       style="fill:#ffffff;stroke:none" />
  </g>
</svg>
